<?xml version="1.0" encoding="utf-8"?>
<!-- Generator: Adobe Illustrator 24.1.1, SVG Export Plug-In . SVG Version: 6.00 Build 0)  -->
<svg version="1.1" id="Layer_1" xmlns="http://www.w3.org/2000/svg" xmlns:xlink="http://www.w3.org/1999/xlink" x="0px" y="0px"
	 viewBox="0 0 195 222.47" style="enable-background:new 0 0 195 222.47;" xml:space="preserve">
<style type="text/css">
	.st0{fill:#DBDBDB;}
	.st1{fill:#F0F0F0;}
	.st2{fill:url(#SVGID_1_);}
	.st3{fill:#F4F3F4;}
	.st4{fill:#A6A5A6;}
	.st5{fill:#B2B2B2;}
</style>
<rect x="-0.03" y="-1.02" class="st0" width="195.03" height="259.02"/>
<path class="st1" d="M186.03,157.45c-3.4-7.15-14.81-21.96-31.15-38.98c-16.34-17.02-23.66-24.34-41.02-22.13l-7.74-4.77
	l-4.85-24.26l-23.49,6.21l-5.06,5.83l-4.85,14.3l-11.11,8.3c0,0-14.94-3.45-23.74,10.85c-8.81,14.3-3.57,24.77-3.57,24.77
	s-10.6,12.26-8.68,30c1.91,17.74,13.02,39.83,18.51,47.74c0,0-0.47,8.77,2.85,12.43c1.02,1.12,1.92,1.93,2.69,2.51l-0.05,8.04h86.3
	c0,0-2.43-6.55-2.85-9.4c0,0,30.48-15.28,48.64-42.34C195,159.49,189.44,164.6,186.03,157.45z M39.01,169.62
	c0,0,5.49,0.64,6.26-14.94l-0.19,31.49C43.86,180.19,41.88,172.97,39.01,169.62z M132.24,210.39l-8.17-2.38
	c0,0-1.02-4.94-1.02-10.72s10.89-52.09,10.89-52.09c7.32,16.17,24.68,21.45,24.68,21.45C150.29,190.98,132.24,210.39,132.24,210.39z
	"/>
<linearGradient id="SVGID_1_" gradientUnits="userSpaceOnUse" x1="88.4824" y1="108.2516" x2="88.1419" y2="-3.7484">
	<stop  offset="0.0547" style="stop-color:#FFFFFF"/>
	<stop  offset="1" style="stop-color:#000000"/>
</linearGradient>
<polygon class="st2" points="108.88,93.28 106.12,91.58 101.27,67.32 77.78,73.54 72.71,79.37 67.99,93.28 "/>
<path class="st3" d="M61.67,50.9c0,0-4.19,0.6-3,5.19s2.13,5.11,2.13,5.87s-0.21,2.77,2.38,1.91c0,0-1.06,17.83,13.4,20.64
	s23.32-6.98,25.36-14.47c2.04-7.49,8.6-12.09,6.21-14.64c-2.38-2.55-5.87-1.11-5.87-1.11l1.02-20.43l-7.74-5.45l-15.74-0.34
	c0,0-13.62,1.79-13.87,1.96c-0.26,0.17-4.68,5.53-4.68,5.53l0.77,15.15"/>
<path class="st4" d="M96.41,22.13c0,0-6.6-7.87-22.3-3.66S56.5,41.79,62.37,54.39l0.51-16.26l5.45-6.64h25.96
	c0,0,2.77,0.68,3.21,2.81c0.45,2.13,0.53,10.72,0.53,10.72s4.09,4.6,3.23,10.38c0,0,3.23-0.34,4.51-6.04S110.46,25.88,96.41,22.13z"
	/>
<path class="st5" d="M67.1,94.43c0,0-10.6,6.89-12.26,9.06c-1.66,2.17-13.79,21.06-12.7,32.17s5.68,43.4,3.98,66.38
	s-1.36,36.26-1.36,36.26h86.81c0,0-12.6-23.32-7.66-48c4.94-24.68,11.06-36.94,10.04-45.11c0,0-12.94-4.13-21.28-16.71
	s-11.06-21.93,1.19-32.15l-7.74-4.77c0,0-13.87,12.6-24.6,12.43S67.1,94.43,67.1,94.43z"/>
<path class="st1" d="M45.65,208.68c0,0,0.12,0.1,0.32,0.27c1.45,1.22,7.19,6.25,6.19,8.09c-1.15,2.11-6.38-4.72-7.34-2.68
	c-0.96,2.04,8.87,7.72,6.89,9.96c-1.98,2.23-5.36-2.94-6.45-1.79c-1.09,1.15,6.64,6.89,5.04,8.04c-1.6,1.15-5.3-3.64-5.56-2.94
	c-0.25,0.7,4.33,3,3.76,3.57c-0.57,0.57-6.5,0.06-7.97-9.77c-1.47-9.83-0.64-13.28-0.64-13.28"/>
<path class="st1" d="M116.5,201.88c-1.01,0.25-0.94,4.17,2.04,7.91c0,0-9.87,0.26-13.49,0.6s-11.79,7.83-10.94,9.96
	s6.98-4,9.19-4.26c2.21-0.26,5.87,0.43,5.87,0.43s-5.36,0.85-6.47,1.79c-1.11,0.94-9.36,11.06-7.32,12.94
	c2.04,1.87,6.98-9.96,12.17-8.94c0,0-10.89,11.15-7.91,12.43s8.34-9.62,11.66-8.85c0,0-6.47,9.87-3.83,10.47s2.13-7.32,6.81-5.96
	c4.68,1.36,12.43-0.34,15.91-2.38s8.68-13.7,8.68-13.7l-5.28-3.32c0,0-10.38-1.53-11.06-2.3
	C121.86,207.92,118.2,201.45,116.5,201.88z"/>
<g>
	<path class="st0" d="M158.63,166.64c0.63-0.2,1.14-0.58,1.59-0.99c0.44-0.42,0.84-0.89,1.17-1.42c0.36-0.51,0.64-1.07,0.95-1.62
		c0.28-0.57,0.57-1.15,0.89-1.74c-0.01,0.33-0.07,0.66-0.1,0.99c-0.06,0.33-0.15,0.65-0.24,0.97c-0.21,0.64-0.48,1.26-0.86,1.82
		c-0.38,0.57-0.85,1.09-1.44,1.46C160.01,166.51,159.3,166.74,158.63,166.64z"/>
</g>
<g>
	<path class="st0" d="M133.95,145.19c0.76-0.53,1.42-1.15,2-1.81c0.58-0.67,1.1-1.38,1.47-2.17c0.38-0.78,0.71-1.61,0.88-2.48
		c0.21-0.87,0.3-1.76,0.41-2.69c0.1,0.45,0.17,0.91,0.22,1.38c0,0.46,0.05,0.94-0.03,1.41c-0.06,0.95-0.38,1.87-0.79,2.73
		C137.26,143.27,135.74,144.67,133.95,145.19z"/>
</g>
<g>
	<g>
		<path class="st0" d="M129.69,108.28c-0.86,0.35-1.63,0.82-2.35,1.33c-0.71,0.53-1.37,1.11-1.91,1.8c-0.54,0.68-1.04,1.41-1.4,2.23
			c-0.39,0.8-0.68,1.65-0.98,2.53c0-0.46,0.03-0.93,0.08-1.39c0.1-0.45,0.15-0.93,0.33-1.37c0.27-0.91,0.78-1.74,1.36-2.5
			C126.04,109.44,127.83,108.4,129.69,108.28z"/>
	</g>
</g>
<g>
	<path class="st0" d="M29.44,137.58c0.91,0.89,1.75,1.79,2.71,2.5c0.94,0.74,2,1.25,3.29,1.07c-0.54,0.35-1.25,0.47-1.92,0.34
		c-0.68-0.12-1.27-0.46-1.8-0.85C30.69,139.84,29.89,138.78,29.44,137.58z"/>
</g>
<g>
	<path class="st0" d="M20.52,161.71c0.75,1.04,1.43,2.05,2.23,2.95c0.8,0.91,1.69,1.68,2.88,2.15c-0.64,0.04-1.31-0.13-1.89-0.44
		c-0.59-0.31-1.08-0.76-1.52-1.24C21.38,164.14,20.77,162.98,20.52,161.71z"/>
</g>
</svg>
