<?xml version="1.0" encoding="utf-8"?>
<!-- Generator: Adobe Illustrator 24.1.1, SVG Export Plug-In . SVG Version: 6.00 Build 0)  -->
<svg version="1.1" id="Layer_1" xmlns="http://www.w3.org/2000/svg" xmlns:xlink="http://www.w3.org/1999/xlink" x="0px" y="0px"
	 viewBox="0 0 43.65 44.83" style="enable-background:new 0 0 43.65 44.83;" xml:space="preserve">
<style type="text/css">
	.st0{fill:#369DD8;}
</style>
<g>
	<g>
		<g>
			<path class="st0" d="M42.9,27.33l-4.12-3.22c0.05-0.5,0.1-1.08,0.1-1.69s-0.04-1.2-0.1-1.69l4.12-3.22
				c0.77-0.61,0.98-1.68,0.49-2.57L39.1,7.51c-0.47-0.85-1.52-1.24-2.48-0.89l-4.86,1.95c-0.93-0.67-1.91-1.24-2.92-1.69l-0.74-5.16
				C27.99,0.74,27.13,0,26.13,0h-8.59c-1.01,0-1.86,0.74-1.98,1.7l-0.74,5.18c-0.98,0.44-1.94,1-2.91,1.7L7.03,6.62
				C6.09,6.25,5.03,6.64,4.57,7.49l-4.29,7.42c-0.51,0.86-0.3,1.97,0.49,2.59l4.12,3.22c-0.07,0.63-0.1,1.18-0.1,1.69
				c0,0.51,0.03,1.06,0.09,1.69l-4.12,3.23c-0.76,0.61-0.97,1.68-0.49,2.57l4.28,7.41c0.47,0.85,1.51,1.24,2.48,0.89l4.86-1.95
				c0.93,0.67,1.91,1.24,2.92,1.69l0.74,5.16c0.12,0.98,0.97,1.72,1.98,1.72h8.59c1.01,0,1.86-0.74,1.98-1.7l0.74-5.17
				c0.98-0.44,1.94-1,2.91-1.7l4.88,1.96c0.93,0.36,1.99-0.02,2.46-0.88l4.31-7.45C43.88,29.01,43.67,27.94,42.9,27.33z
				 M41.77,28.97l-4.45,7.5l-5.35-2.15c-0.3-0.12-0.65-0.07-0.91,0.12c-1.16,0.87-2.28,1.52-3.42,1.99
				c-0.31,0.13-0.52,0.4-0.57,0.73l-0.94,5.79l-8.72-0.1l-0.82-5.69c-0.05-0.33-0.27-0.61-0.57-0.73c-1.19-0.49-2.34-1.16-3.42-1.98
				c-0.17-0.13-0.37-0.19-0.57-0.19c-0.12,0-0.24,0.02-0.35,0.07l-5.5,2.08L1.9,28.99c-0.04-0.07-0.03-0.16,0.01-0.19l4.53-3.54
				c0.26-0.2,0.39-0.53,0.35-0.85c-0.1-0.78-0.14-1.42-0.14-1.99c0-0.57,0.05-1.2,0.14-1.99c0.04-0.33-0.09-0.65-0.35-0.85
				l-4.56-3.72l4.45-7.5l5.35,2.15c0.3,0.12,0.65,0.08,0.91-0.12c1.16-0.87,2.28-1.52,3.42-1.99c0.31-0.13,0.52-0.41,0.57-0.73
				l0.95-5.79l8.72,0.1l0.81,5.69c0.05,0.33,0.27,0.61,0.57,0.73c1.19,0.49,2.34,1.15,3.42,1.98c0.26,0.2,0.61,0.25,0.92,0.13
				l5.5-2.08l4.28,7.41c0.04,0.07,0.03,0.16-0.01,0.19l-4.53,3.54c-0.26,0.2-0.39,0.52-0.35,0.85c0.07,0.57,0.14,1.25,0.14,1.99
				c0,0.74-0.07,1.42-0.14,1.99c-0.04,0.33,0.09,0.65,0.35,0.85l4.53,3.54C41.79,28.84,41.8,28.92,41.77,28.97z"/>
			<path class="st0" d="M21.83,13.07c-5.15,0-9.34,4.19-9.34,9.34s4.19,9.34,9.34,9.34s9.34-4.19,9.34-9.34S26.98,13.07,21.83,13.07
				z M21.83,29.89c-4.12,0-7.47-3.35-7.47-7.47s3.35-7.47,7.47-7.47s7.47,3.35,7.47,7.47S25.95,29.89,21.83,29.89z"/>
		</g>
	</g>
</g>
</svg>
