<?xml version="1.0" encoding="utf-8"?>
<!-- Generator: Adobe Illustrator 24.1.1, SVG Export Plug-In . SVG Version: 6.00 Build 0)  -->
<svg version="1.1" id="Layer_1" xmlns="http://www.w3.org/2000/svg" xmlns:xlink="http://www.w3.org/1999/xlink" x="0px" y="0px"
	 viewBox="0 0 261.19 86.15" style="enable-background:new 0 0 261.19 86.15;" xml:space="preserve">
<style type="text/css">
	.st0{fill:#3E9DD8;}
	.st1{fill:#122027;}
</style>
<g>
	<g>
		<g id="lH8QKi_15_">
			<g>
				<path class="st0" d="M100.88,36.43c0.4,3.43-0.8,6.38-2.83,9.05c-0.8,1.06-0.85,1.05-1.77,0.13
					c-4.82-4.82-9.67-9.61-14.45-14.47c-2.31-2.34-4.99-3.81-8.24-4.45c-5.16-1.02-9.53,0.44-13.26,3.96
					c-2.86,2.7-5.61,5.53-8.36,8.35c-0.71,0.72-1.13,0.81-1.88,0.03c-2.79-2.88-5.63-5.7-8.49-8.51c-2.05-2.02-4.53-3.18-7.35-3.82
					c-4.14-0.94-7.85,0.07-11.35,2.16c-0.92,0.55-1.73,1.35-2.5,2.11c-4.88,4.85-9.74,9.73-14.61,14.59
					c-0.95,0.95-0.99,0.97-1.77-0.06c-1.87-2.46-3.01-5.15-2.98-8.32c0.02-2.38,0-4.75,1.2-6.88c0.73-1.3,1.5-2.65,2.53-3.7
					c5.51-5.63,11.09-11.19,16.7-16.72c1.7-1.68,3.8-2.86,6.18-3.25c1.87-0.3,3.82-0.54,5.69-0.36c2.43,0.24,4.78,1.09,6.61,2.78
					c3.27,3.02,6.42,6.16,9.61,9.26c1.4,1.36,1.53,1.38,2.88,0.03c2.52-2.52,5.05-5.03,7.55-7.56c2.3-2.33,5.03-4,8.25-4.48
					c3.74-0.56,7.38-0.01,10.58,2.24c0.94,0.66,1.84,1.43,2.66,2.24c5.03,4.99,10.01,10.04,15.06,15.02c2.15,2.13,3.66,4.6,4.3,7.54
					C101.06,34.34,100.88,35.4,100.88,36.43z"/>
				<path class="st0" d="M54.2,42.9c0.83-0.79,1.65-1.56,2.46-2.34c2.56-2.48,5-5.08,7.69-7.4c4.06-3.52,10.19-2.98,13.91,0.71
					c4.99,4.94,9.93,9.93,14.91,14.87c0.62,0.61,0.7,0.99,0.03,1.65c-9.42,9.38-18.82,18.77-28.19,28.19
					c-0.72,0.72-1.1,0.55-1.72-0.07C53.23,68.42,43.15,58.35,33.07,48.28c-1.78-1.78-1.78-1.78-3.53-0.04
					c-3.51,3.51-7.04,7-10.52,10.55c-0.71,0.72-1.12,0.67-1.8-0.02c-2.75-2.82-5.54-5.6-8.35-8.36c-0.64-0.63-0.66-1.01-0.01-1.65
					c4.99-4.94,9.93-9.93,14.91-14.87c3.72-3.69,9.83-4.2,14.01-0.71c0.68,0.57,1.36,1.15,1.99,1.78
					c7.61,7.6,15.22,15.2,22.82,22.81c1.69,1.69,1.69,1.69,3.39-0.01c2.37-2.37,4.75-4.74,7.12-7.12c0.93-0.94,0.91-1.06-0.08-1.9
					c-0.42-0.35-0.79-0.76-1.18-1.14c-0.9-0.87-1.27-0.88-2.15-0.02c-1.63,1.61-3.26,3.23-4.87,4.87c-0.45,0.46-0.79,0.52-1.27,0.03
					c-2.96-2.99-5.95-5.96-8.93-8.95C54.49,43.38,54.4,43.2,54.2,42.9z"/>
				<path class="st0" d="M21.35,62.79c3.36-3.33,6.63-6.57,9.82-9.72c0.44,0.37,0.96,0.76,1.42,1.21
					c9.11,9.09,18.21,18.2,27.31,27.3c1.08,1.07,1.06,1.26-0.2,2.16c-2.46,1.75-5.14,2.65-8.22,2.69c-3.27,0.04-6.23-0.6-8.89-2.53
					c-0.41-0.3-0.82-0.62-1.18-0.98c-6.47-6.46-12.93-12.92-19.4-19.39C21.8,63.31,21.61,63.08,21.35,62.79z"/>
			</g>
		</g>
		<g>
			<g>
				<path class="st1" d="M113.59,13.24h8.17v3.11c0,0,0.53-1.05,1.79-2.06c1.26-1.05,3.32-2.06,6.38-2.06c2,0,4.53,0.53,6.69,2.79
					c0.63,0.63,1.21,1.42,1.74,2.42c0.58-0.9,1.26-1.79,2.11-2.53c1.74-1.58,4.11-2.69,7.17-2.69c2.06,0,5.32,0.47,7.69,2.95
					c2.74,2.9,3.16,4.85,3.16,11.33v15.97h-8.75V26.94c0-1.21,0-2.79-0.58-4.11c-0.53-1.37-1.63-2.37-3.9-2.37
					c-2.42,0-3.64,1.11-4.22,2.42c-0.63,1.32-0.63,2.79-0.63,3.64v15.97h-8.75V26.57c0-0.79,0-2.32-0.53-3.64
					c-0.58-1.37-1.63-2.48-3.85-2.48c-2.48,0-3.69,1.16-4.32,2.58c-0.63,1.42-0.63,3-0.63,3.9v15.54h-8.75V13.24z"/>
				<path class="st1" d="M164.39,13.24h8.75v29.24h-8.75V13.24z"/>
				<path class="st1" d="M179.15,13.24h8.22v3.27c0.84-1.58,2.37-4.27,7.43-4.27v8.8h-0.32c-4.48,0-6.59,1.63-6.59,5.74v15.7h-8.75
					V13.24z"/>
				<path class="st1" d="M227.99,42.49h-8.75v-3.16c-1.58,2.85-5.22,4.16-8.64,4.16c-9.27,0-14.7-7.27-14.7-15.65
					c0-9.59,6.9-15.6,14.7-15.6c4.8,0,7.48,2.32,8.64,4.11v-3.11h8.75V42.49z M204.65,27.99c0,2.69,2,7.32,7.27,7.32
					c3.11,0,5.01-1.48,6.11-3.27c0.74-1.16,1.11-2.42,1.21-3.74c0.11-1.32-0.16-2.63-0.74-3.85c-0.95-2-2.95-4.06-6.64-4.06
					c-5.01,0-7.22,4.22-7.22,7.54V27.99z"/>
				<path class="st1" d="M234.11,13.24h8.17v3.11c1-1.42,2.85-4.11,8.06-4.11c9.85,0,10.85,8.01,10.85,11.96v18.28h-8.75V26.52
					c0-3.21-0.68-6.06-4.58-6.06c-4.32,0-5.01,3.11-5.01,6.11v15.91h-8.75V13.24z"/>
			</g>
			<circle class="st1" cx="168.77" cy="5.85" r="4.99"/>
		</g>
	</g>
	<g>
		<path class="st1" d="M128.06,70.72h-2.23v-4.53h2.23v-0.86c0-5.79,4.28-6.29,8.49-6.29v4.5c-1.12,0-2.52,0-2.52,1.91v0.76h2.52
			v4.53h-2.52v15.43h-5.97V70.72z"/>
		<path class="st1" d="M137.31,76.11c0-4.86,3.49-10.57,10.75-10.57c7.27,0,10.75,5.72,10.75,10.61c0,4.89-3.49,10.61-10.75,10.61
			c-7.27,0-10.75-5.72-10.75-10.61V76.11z M143.28,76.18c0,2.88,2.19,5,4.78,5c2.59,0,4.78-2.12,4.78-5.04s-2.19-5.04-4.78-5.04
			c-2.59,0-4.78,2.12-4.78,5.04V76.18z"/>
		<path class="st1" d="M161.98,66.18h5.61v2.23c0.58-1.08,1.62-2.91,5.07-2.91v6.01h-0.22c-3.06,0-4.5,1.11-4.5,3.92v10.72h-5.97
			V66.18z"/>
		<path class="st1" d="M194.78,59.53c4.93,0,6.76,0.76,8.2,1.94c2.09,1.73,3.13,4.35,3.13,7.05c0,2.7-1.12,5.54-2.81,6.98
			c-1.83,1.55-3.63,2.3-7.77,2.3h-2.66v8.34h-6.8V59.53H194.78z M192.88,71.83h2.48c0.65,0,1.73,0,2.63-0.4
			c0.9-0.4,1.62-1.22,1.62-2.81s-0.76-2.34-1.69-2.73c-0.94-0.4-2.05-0.4-2.81-0.4h-2.23V71.83z"/>
		<path class="st1" d="M211.98,65.5h-5.25v-5.97h17.26v5.97h-5.22v20.65h-6.8V65.5z"/>
		<path class="st1" d="M233.34,71.8c-0.04-0.43-0.11-1.51-1.87-1.51c-1.26,0-1.69,0.79-1.69,1.33c0,0.9,1.47,1.51,3.06,1.98
			c3.38,0.94,6.98,1.94,6.98,6.26c0,4.39-3.7,6.98-8.13,6.98c-3.02,0-7.59-1.37-8.13-6.62h5.93c0.25,1.83,2.01,1.83,2.27,1.83
			c1.01,0,2.09-0.58,2.09-1.55c0-1.37-1.47-1.55-5.29-3.02c-2.59-0.83-4.75-2.52-4.75-5.22c0-4.14,3.6-6.76,7.73-6.76
			c2.63,0,7.16,1.04,7.66,6.29H233.34z"/>
	</g>
</g>
</svg>
