<?xml version="1.0" encoding="utf-8"?>
<!-- Generator: Adobe Illustrator 24.1.1, SVG Export Plug-In . SVG Version: 6.00 Build 0)  -->
<svg version="1.1" id="Capa_1" xmlns="http://www.w3.org/2000/svg" xmlns:xlink="http://www.w3.org/1999/xlink" x="0px" y="0px"
	 viewBox="0 0 507.9 507.9" style="enable-background:new 0 0 507.9 507.9;" xml:space="preserve">
<style type="text/css">
	.st0{fill:#00A4F8;}
</style>
<g>
	<g>
		<path class="st0" d="M432.4,444.5c-4.4,42.1-48.1,51.9-130.2,43.8c-63.7-6.3-118.2-1.6-140.7,0c-51.9,3.6-92.8,6.5-114.5-13.7
			c-12.5-11.7-18.6-31.5-18.6-60.6c0-85.2,53.2-161.2,132.7-190.7c20,14.1,44.4,22.5,70.7,22.5s50.7-8.4,70.7-22.6
			c26.5,9.9,51.2,25.4,71.5,45.3l11.5-11.8c-19.7-19.3-43.2-34.8-68.5-45.5c23.2-22.4,37.7-53.7,37.7-88.3
			C354.7,55.1,299.6,0,231.8,0S108.9,55.1,108.9,122.9c0,34.7,14.5,66,37.7,88.4C65.6,245.3,12,325,12,413.9
			c0,33.9,8.3,57.1,23.9,72.6c30.9,30.9,94.8,19.8,126.9,18.1c61.6-3.2,60.8-6.2,138.4,0c71,5.7,132.5,9.3,147.3-56.5L432.4,444.5z
			 M125.4,122.9c0-58.7,47.7-106.4,106.4-106.4s106.4,47.7,106.4,106.4s-47.7,106.4-106.4,106.4
			C173.2,229.3,125.4,181.6,125.4,122.9z"/>
	</g>
</g>
<g>
	<g>
		<path class="st0" d="M417.1,273.4c-43.4,0-78.8,35.3-78.8,78.8s35.3,78.8,78.8,78.8s78.8-35.3,78.8-78.8S460.5,273.4,417.1,273.4z
			 M417.1,414.5c-34.4,0-62.3-28-62.3-62.3c0-34.4,28-62.3,62.3-62.3c34.4,0,62.3,28,62.3,62.3C479.4,386.6,451.4,414.5,417.1,414.5
			z"/>
	</g>
</g>
<g>
	<g>
		<polygon class="st0" points="425.3,344 425.3,308.1 408.8,308.1 408.8,344 373,344 373,360.4 408.8,360.4 408.8,396.3 
			425.3,396.3 425.3,360.4 461.2,360.4 461.2,344 		"/>
	</g>
</g>
</svg>
