<?xml version="1.0" encoding="utf-8"?>
<!-- Generator: Adobe Illustrator 24.1.1, SVG Export Plug-In . SVG Version: 6.00 Build 0)  -->
<svg version="1.1" id="Layer_1" xmlns="http://www.w3.org/2000/svg" xmlns:xlink="http://www.w3.org/1999/xlink" x="0px" y="0px"
	 viewBox="0 0 32.73 32.73" style="enable-background:new 0 0 32.73 32.73;" xml:space="preserve">
<style type="text/css">
	.st0{fill:#3E9DD8;}
</style>
<g>
	<g>
		<g>
			<path class="st0" d="M29.23,0H3.51C1.57,0,0,1.57,0,3.51v18.7c0,1.94,1.57,3.51,3.51,3.51h4.15l-0.64,5.72
				c-0.07,0.64,0.39,1.22,1.03,1.29c0.33,0.04,0.66-0.07,0.91-0.29l7.46-6.71h12.8c1.94,0,3.51-1.57,3.51-3.51V3.51
				C32.73,1.57,31.16,0,29.23,0z M30.39,22.21c0,0.65-0.52,1.17-1.17,1.17H15.98c-0.29,0-0.57,0.11-0.78,0.3l-5.51,4.96l0.44-3.96
				c0.07-0.64-0.39-1.22-1.03-1.29c-0.04,0-0.09-0.01-0.13-0.01H3.51c-0.65,0-1.17-0.52-1.17-1.17V3.51c0-0.65,0.52-1.17,1.17-1.17
				h25.72c0.65,0,1.17,0.52,1.17,1.17L30.39,22.21L30.39,22.21z"/>
		</g>
	</g>
</g>
</svg>
