<?xml version="1.0" encoding="utf-8"?>
<!-- Generator: Adobe Illustrator 24.1.1, SVG Export Plug-In . SVG Version: 6.00 Build 0)  -->
<svg version="1.1" id="Layer_1" xmlns="http://www.w3.org/2000/svg" xmlns:xlink="http://www.w3.org/1999/xlink" x="0px" y="0px"
	 viewBox="0 0 512 512" style="enable-background:new 0 0 512 512;" xml:space="preserve">
<style type="text/css">
	.st0{fill:#007BFF;}
</style>
<g id="outline">
	<path class="st0" d="M40,416h432c13.1,0,23.8-10.5,24-23.6c0.2-13.4-11.1-24.4-24.5-24.4H369.3l61.6-72.8
		c4.8-5.7,9.3-11.8,13.3-18.1c0.4-0.5,9.2-16,12.5-23.6l7.3-17c5.5-12.9,6.6-27.2,3.3-40.8l-7.9-31.5l10.2,3.4c2.9,1,6,0.2,8.2-1.9
		l8-8c1.5-1.5,2.3-3.5,2.3-5.7v-24c0-3-1.7-5.8-4.4-7.2l-14.8-7.4l-18.3-18.3c-4.5-4.5-10.7-7.1-17.1-7.1h-1c-6.9,0-13.4,2.9-18,8.1
		c-7,0.3-13.7,2.8-19.2,7.2c-5,4-8.7,9.3-10.7,15.4l-7.9,22.9c-0.6,1.8-0.5,3.7,0.2,5.5l7.4,18.6V184c0,4.4,3.6,8,8,8h16v9.1
		l-7.8,1.1l0,0l-29.1,4.2c-15.5,2.2-27.1,15.5-27.1,31.2v32.2l-17.6,29.3l-78.7-78.7c-16.6-16.6-43.5-16.6-60,0
		c-1.7,1.7-3.2,3.4-4.5,5.3l-68.8,96.4l-21.6,14.4l-30.7,7.7c-3.6,0.9-6.1,4.1-6.1,7.8v16H40.5c-13.4,0-24.8,11-24.5,24.4
		C16.2,405.5,26.9,416,40,416z M408,113.9v10.8l-6-6C403.6,116.7,405.7,115,408,113.9z M400,176v-12c0-1-0.2-2-0.6-3l-6.9-17.3
		l3-8.9l12.5,12.5V176H400z M402.9,237.3l4.8-19.3l0-0.2l0.1-0.5l9.2-1.3c3.9-0.6,6.9-3.9,6.9-7.9v-95.8c0-4.6,3.7-8.2,8.2-8.2h1
		c2.2,0,4.3,0.9,5.8,2.4l19.2,19.2c0.6,0.6,1.3,1.1,2.1,1.5l11.6,5.8v15.7l-2.2,2.2l-4.6-1.5l-15.1-14.9c-3.2-3.1-8.2-3-11.3,0.1
		c-2,2.1-2.8,5.1-2,7.9l14.8,57.2c2.5,10.2,1.7,21-2.5,30.6l-7.3,17c-2.5,5.8-5.3,11.4-8.5,16.8h-9.6c-11.9,0-21.5-9.6-21.5-21.5
		C402.3,240.7,402.5,239,402.9,237.3L402.9,237.3z M358.9,276.1c0.7-1.2,1.1-2.7,1.1-4.1v-34.4c0-7.7,5.7-14.3,13.3-15.4l17.5-2.5
		l-3.4,13.7c-5,20.1,7.2,40.4,27.3,45.5c2.6,0.6,5.3,1,7.9,1.1c-1.3,1.6-2.6,3.3-3.9,4.9l-61.6,72.8l-1.4-8.6
		c-2.3-14-8.4-27.2-17.7-38L358.9,276.1z M196.2,235.1c8.5-11.9,25-14.6,36.9-6.2c1.2,0.8,2.3,1.8,3.3,2.8l85.9,85.9
		c9.2,9.2,15.4,21.1,17.5,34l2.7,16.4H300l-77.3-108.4c-2.5-3.7-7.4-4.7-11.1-2.2c-1,0.7-1.8,1.5-2.4,2.5L185.6,299L144,340.7
		l-13.6-13.6L196.2,235.1z M280,368H147.1l3.9-11.7l46.7-46.7c0.5-0.5,0.9-1,1.2-1.5l17.5-29.2L280,368z M72,358.2l25.9-6.5
		c0.9-0.2,1.7-0.6,2.5-1.1l18.5-12.4l15.9,15.9l-4.6,13.8H72V358.2z M40,384h432c4.4,0,8,3.6,8,8s-3.6,8-8,8H40c-4.4,0-8-3.6-8-8
		S35.6,384,40,384z"/>
	<path class="st0" d="M433.9,329.5l-8,9.3c-2.9,3.3-2.6,8.4,0.8,11.3c3.3,2.9,8.4,2.6,11.3-0.8c0,0,0.1-0.1,0.1-0.1l8-9.3
		c2.9-3.4,2.5-8.4-0.9-11.3C441.9,325.7,436.8,326.1,433.9,329.5z"/>
	<path class="st0" d="M473.9,282.8l-24,28c-2.9,3.4-2.5,8.4,0.9,11.3s8.4,2.5,11.3-0.9l24-28c2.9-3.4,2.5-8.4-0.9-11.3
		S476.8,279.4,473.9,282.8z"/>
</g>
</svg>
