<?xml version="1.0" encoding="utf-8"?>
<!-- Generator: Adobe Illustrator 24.1.1, SVG Export Plug-In . SVG Version: 6.00 Build 0)  -->
<svg version="1.1" id="Layer_1" xmlns="http://www.w3.org/2000/svg" xmlns:xlink="http://www.w3.org/1999/xlink" x="0px" y="0px"
	 viewBox="0 0 36.88 32.88" style="enable-background:new 0 0 36.88 32.88;" xml:space="preserve">
<style type="text/css">
	.st0{fill:#369DD8;}
</style>
<g>
	<g>
		<g>
			<path class="st0" d="M36.49,12.99L19.01,0.19c-0.34-0.25-0.8-0.25-1.13,0L0.39,12.99c-0.43,0.31-0.52,0.91-0.21,1.34
				c0.31,0.43,0.91,0.52,1.34,0.21L18.44,2.15l16.92,12.39c0.17,0.12,0.37,0.19,0.57,0.19c0.3,0,0.59-0.14,0.77-0.39
				C37.01,13.9,36.92,13.3,36.49,12.99z"/>
		</g>
	</g>
	<g>
		<g>
			<path class="st0" d="M31.86,14.75c-0.53,0-0.96,0.43-0.96,0.96v15.25h-7.67v-8.33c0-2.64-2.15-4.79-4.79-4.79
				s-4.79,2.15-4.79,4.79v8.33H5.98V15.71c0-0.53-0.43-0.96-0.96-0.96s-0.96,0.43-0.96,0.96v16.21c0,0.53,0.43,0.96,0.96,0.96h9.58
				c0.5,0,0.92-0.39,0.95-0.88c0-0.02,0-0.05,0-0.07v-9.28c0-1.59,1.29-2.88,2.88-2.88s2.88,1.29,2.88,2.88v9.28
				c0,0.03,0,0.05,0,0.07c0.04,0.49,0.45,0.88,0.95,0.88h9.58c0.53,0,0.96-0.43,0.96-0.96V15.71
				C32.82,15.18,32.39,14.75,31.86,14.75z"/>
		</g>
	</g>
</g>
</svg>
