<?xml version="1.0" encoding="utf-8"?>
<!-- Generator: Adobe Illustrator 24.1.1, SVG Export Plug-In . SVG Version: 6.00 Build 0)  -->
<svg version="1.1" id="Layer_1" xmlns="http://www.w3.org/2000/svg" xmlns:xlink="http://www.w3.org/1999/xlink" x="0px" y="0px"
	 viewBox="0 0 30.48 30.48" style="enable-background:new 0 0 30.48 30.48;" xml:space="preserve">
<style type="text/css">
	.st0{fill:#FFFFFF;}
</style>
<path class="st0" d="M21.49,23.33v2.38c0,2.63-2.14,4.76-4.76,4.76H4.76C2.14,30.48,0,28.34,0,25.71V4.76C0,2.14,2.14,0,4.76,0
	h11.96c2.63,0,4.76,2.14,4.76,4.76v2.38c0,0.66-0.53,1.19-1.19,1.19c-0.66,0-1.19-0.53-1.19-1.19V4.76c0-1.31-1.07-2.38-2.38-2.38
	H4.76c-1.31,0-2.38,1.07-2.38,2.38v20.95c0,1.31,1.07,2.38,2.38,2.38h11.96c1.31,0,2.38-1.07,2.38-2.38v-2.38
	c0-0.66,0.53-1.19,1.19-1.19C20.96,22.14,21.49,22.68,21.49,23.33z M29.61,13.19l-2.67-2.67c-0.47-0.47-1.22-0.47-1.68,0
	c-0.47,0.46-0.47,1.22,0,1.68l1.9,1.9H12.86c-0.66,0-1.19,0.53-1.19,1.19s0.53,1.19,1.19,1.19h14.29l-1.9,1.9
	c-0.47,0.46-0.47,1.22,0,1.68c0.23,0.23,0.54,0.35,0.84,0.35c0.3,0,0.61-0.12,0.84-0.35l2.67-2.67
	C30.77,16.24,30.77,14.35,29.61,13.19z"/>
</svg>
