<?xml version="1.0" encoding="utf-8"?>
<!-- Generator: Adobe Illustrator 24.1.1, SVG Export Plug-In . SVG Version: 6.00 Build 0)  -->
<svg version="1.1" id="Layer_1" xmlns="http://www.w3.org/2000/svg" xmlns:xlink="http://www.w3.org/1999/xlink" x="0px" y="0px"
	 viewBox="0 0 833.16 672.3" style="enable-background:new 0 0 833.16 672.3;" xml:space="preserve">
<style type="text/css">
	.st0{opacity:0.6;}
	.st1{clip-path:url(#SVGID_1_);}
	.st2{fill:#0390D0;}
</style>
<g class="st0">
	<defs>
		<rect id="SVGID_3_" class="st0" width="833.16" height="672.3"/>
	</defs>
	<clipPath id="SVGID_1_">
		<use xlink:href="#SVGID_3_"  style="overflow:visible;"/>
	</clipPath>
	<g id="lH8QKi_10_" class="st1">
		<g>
			<path class="st2" d="M736.08,312.22c2.27,19.53-4.56,36.3-16.12,51.5c-4.58,6.02-4.82,5.95-10.06,0.71
				c-27.43-27.41-55-54.7-82.22-82.32c-13.14-13.33-28.42-21.69-46.89-25.32c-29.35-5.78-54.25,2.49-75.45,22.52
				c-16.28,15.39-31.91,31.47-47.54,47.53c-4.01,4.12-6.41,4.59-10.67,0.19c-15.86-16.38-32.06-32.44-48.3-48.44
				c-11.67-11.5-25.79-18.07-41.83-21.71c-23.56-5.35-44.66,0.38-64.59,12.3c-5.26,3.15-9.82,7.66-14.22,12.03
				c-27.79,27.61-55.45,55.35-83.15,83.04c-5.42,5.42-5.61,5.52-10.07-0.35c-10.61-13.98-17.13-29.29-16.97-47.35
				c0.12-13.54,0.02-27.01,6.85-39.14c4.16-7.4,8.54-15.06,14.4-21.05c31.37-32.01,63.08-63.7,95.04-95.13
				c9.69-9.53,21.62-16.27,35.16-18.47c10.64-1.73,21.72-3.07,32.35-2.03c13.81,1.34,27.21,6.21,37.63,15.84
				c18.58,17.18,36.53,35.04,54.67,52.69c7.97,7.76,8.68,7.85,16.38,0.15c14.34-14.33,28.72-28.6,42.98-43.01
				c13.11-13.24,28.63-22.76,46.95-25.48c21.26-3.16,42.02-0.07,60.2,12.72c5.37,3.78,10.45,8.11,15.11,12.75
				c28.63,28.42,56.98,57.12,85.69,85.46c12.26,12.1,20.84,26.17,24.47,42.91C737.1,300.33,736.08,306.39,736.08,312.22z"/>
			<path class="st2" d="M470.43,349.06c4.73-4.5,9.4-8.87,13.99-13.31c14.55-14.08,28.47-28.9,43.75-42.13
				c23.1-20,57.95-16.93,79.16,4.04c28.4,28.09,56.49,56.51,84.86,84.63c3.52,3.49,3.97,5.62,0.2,9.38
				c-53.58,53.35-107.07,106.8-160.4,160.4c-4.09,4.11-6.29,3.13-9.8-0.4c-57.25-57.4-114.6-114.7-171.93-172.02
				c-10.15-10.15-10.15-10.15-20.1-0.2c-19.98,19.98-40.07,39.85-59.86,60.03c-4.04,4.12-6.39,3.81-10.24-0.14
				c-15.65-16.04-31.52-31.87-47.54-47.55c-3.64-3.56-3.75-5.73-0.06-9.39c28.39-28.11,56.49-56.51,84.86-84.64
				c21.19-21.01,55.91-23.88,79.74-4.04c3.88,3.23,7.74,6.54,11.31,10.1c43.32,43.22,86.58,86.5,129.85,129.77
				c9.6,9.6,9.59,9.61,19.28-0.08c13.51-13.5,27.03-26.99,40.51-40.52c5.31-5.33,5.19-6.01-0.45-10.82
				c-2.37-2.02-4.48-4.34-6.72-6.5c-5.11-4.94-7.24-5.02-12.21-0.1c-9.28,9.18-18.55,18.39-27.68,27.71
				c-2.58,2.63-4.49,2.94-7.24,0.16c-16.87-17.03-33.86-33.93-50.79-50.91C472.13,351.77,471.6,350.73,470.43,349.06z"/>
			<path class="st2" d="M283.52,462.2c19.11-18.92,37.74-37.36,55.87-55.31c2.51,2.13,5.48,4.31,8.07,6.89
				c51.83,51.75,103.62,103.54,155.41,155.33c6.12,6.12,6.03,7.19-1.13,12.27c-14,9.95-29.24,15.08-46.78,15.3
				c-18.6,0.23-35.46-3.44-50.56-14.38c-2.36-1.71-4.68-3.53-6.73-5.57c-36.82-36.74-73.59-73.52-110.36-110.3
				C286.1,465.2,285,463.85,283.52,462.2z"/>
		</g>
	</g>
</g>
</svg>
