<?xml version="1.0" encoding="utf-8"?>
<!-- Generator: Adobe Illustrator 24.1.1, SVG Export Plug-In . SVG Version: 6.00 Build 0)  -->
<svg version="1.1" id="Layer_1" xmlns="http://www.w3.org/2000/svg" xmlns:xlink="http://www.w3.org/1999/xlink" x="0px" y="0px"
	 viewBox="0 0 209.38 69.2" style="enable-background:new 0 0 209.38 69.2;" xml:space="preserve">
<style type="text/css">
	.st0{fill:#3E9DD8;}
	.st1{fill:#FFFFFF;}
</style>
<g>
	<g>
		<g id="lH8QKi_24_">
			<g>
				<path class="st0" d="M80.36,28.63c0.32,2.76-0.65,5.14-2.28,7.29c-0.65,0.85-0.68,0.84-1.42,0.1
					c-3.88-3.88-7.78-7.74-11.63-11.64c-1.86-1.89-4.02-3.07-6.63-3.58c-4.15-0.82-7.67,0.35-10.67,3.19
					c-2.3,2.18-4.51,4.45-6.73,6.72c-0.57,0.58-0.91,0.65-1.51,0.03c-2.24-2.32-4.53-4.59-6.83-6.85C31,22.25,29,21.32,26.73,20.81
					c-3.33-0.76-6.32,0.05-9.14,1.74c-0.74,0.44-1.39,1.08-2.01,1.7c-3.93,3.9-7.84,7.83-11.76,11.75
					c-0.77,0.77-0.79,0.78-1.42-0.05c-1.5-1.98-2.42-4.14-2.4-6.7c0.02-1.92,0-3.82,0.97-5.54c0.59-1.05,1.21-2.13,2.04-2.98
					c4.44-4.53,8.92-9.01,13.44-13.46c1.37-1.35,3.06-2.3,4.97-2.61c1.51-0.24,3.07-0.43,4.58-0.29c1.95,0.19,3.85,0.88,5.32,2.24
					c2.63,2.43,5.17,4.96,7.73,7.45c1.13,1.1,1.23,1.11,2.32,0.02c2.03-2.03,4.06-4.05,6.08-6.08c1.85-1.87,4.05-3.22,6.64-3.6
					c3.01-0.45,5.94-0.01,8.52,1.8c0.76,0.53,1.48,1.15,2.14,1.8c4.05,4.02,8.06,8.08,12.12,12.09c1.73,1.71,2.95,3.7,3.46,6.07
					C80.5,26.95,80.36,27.81,80.36,28.63z"/>
				<path class="st0" d="M42.78,33.84c0.67-0.64,1.33-1.25,1.98-1.88c2.06-1.99,4.03-4.09,6.19-5.96c3.27-2.83,8.2-2.4,11.2,0.57
					c4.02,3.97,7.99,7.99,12,11.97c0.5,0.49,0.56,0.8,0.03,1.33c-7.58,7.55-15.14,15.11-22.69,22.69C50.91,63.14,50.6,63,50.1,62.5
					C42,54.38,33.89,46.28,25.78,38.17c-1.44-1.44-1.44-1.44-2.84-0.03c-2.83,2.83-5.67,5.64-8.47,8.49
					c-0.57,0.58-0.9,0.54-1.45-0.02c-2.21-2.27-4.46-4.51-6.72-6.73c-0.51-0.5-0.53-0.81-0.01-1.33c4.02-3.98,7.99-7.99,12-11.97
					c3-2.97,7.91-3.38,11.28-0.57c0.55,0.46,1.09,0.92,1.6,1.43c6.13,6.11,12.25,12.24,18.37,18.36c1.36,1.36,1.36,1.36,2.73-0.01
					c1.91-1.91,3.82-3.82,5.73-5.73c0.75-0.75,0.73-0.85-0.06-1.53c-0.33-0.29-0.63-0.61-0.95-0.92c-0.72-0.7-1.02-0.71-1.73-0.01
					c-1.31,1.3-2.62,2.6-3.92,3.92c-0.36,0.37-0.64,0.42-1.02,0.02c-2.39-2.41-4.79-4.8-7.18-7.2
					C43.02,34.23,42.94,34.08,42.78,33.84z"/>
				<path class="st0" d="M16.34,49.85c2.7-2.68,5.34-5.28,7.9-7.82c0.35,0.3,0.78,0.61,1.14,0.97c7.33,7.32,14.66,14.65,21.98,21.97
					c0.87,0.87,0.85,1.02-0.16,1.74c-1.98,1.41-4.14,2.13-6.62,2.16c-2.63,0.03-5.02-0.49-7.15-2.03c-0.33-0.24-0.66-0.5-0.95-0.79
					c-5.21-5.2-10.41-10.4-15.61-15.6C16.71,50.27,16.55,50.08,16.34,49.85z"/>
			</g>
		</g>
		<g>
			<g>
				<path class="st1" d="M90.59,9.97h6.57v2.5c0,0,0.42-0.85,1.44-1.65c1.02-0.85,2.67-1.65,5.13-1.65c1.61,0,3.65,0.42,5.39,2.25
					c0.51,0.51,0.98,1.15,1.4,1.95c0.47-0.72,1.02-1.44,1.7-2.04c1.4-1.27,3.31-2.16,5.77-2.16c1.65,0,4.28,0.38,6.19,2.38
					c2.21,2.33,2.54,3.9,2.54,9.12v12.85h-7.04V20.99c0-0.98,0-2.25-0.47-3.31c-0.42-1.1-1.31-1.91-3.14-1.91
					c-1.95,0-2.93,0.89-3.39,1.95c-0.51,1.06-0.51,2.25-0.51,2.93v12.85h-7.04V20.7c0-0.64,0-1.87-0.42-2.93
					c-0.47-1.1-1.31-1.99-3.1-1.99c-1.99,0-2.97,0.93-3.48,2.08c-0.51,1.15-0.51,2.42-0.51,3.14v12.51h-7.04V9.97z"/>
				<path class="st1" d="M131.47,9.97h7.04v23.54h-7.04V9.97z"/>
				<path class="st1" d="M143.35,9.97h6.62v2.63c0.68-1.27,1.91-3.44,5.98-3.44v7.08h-0.25c-3.6,0-5.3,1.31-5.3,4.62v12.64h-7.04
					V9.97z"/>
				<path class="st1" d="M182.66,33.51h-7.04v-2.54c-1.27,2.29-4.2,3.35-6.96,3.35c-7.46,0-11.83-5.85-11.83-12.6
					c0-7.72,5.56-12.55,11.83-12.55c3.86,0,6.02,1.87,6.96,3.31v-2.5h7.04V33.51z M163.88,21.84c0,2.16,1.61,5.9,5.85,5.9
					c2.5,0,4.03-1.19,4.92-2.63c0.59-0.93,0.89-1.95,0.98-3.01c0.08-1.06-0.13-2.12-0.59-3.1c-0.76-1.61-2.38-3.27-5.34-3.27
					c-4.03,0-5.81,3.39-5.81,6.06V21.84z"/>
				<path class="st1" d="M187.58,9.97h6.57v2.5c0.81-1.15,2.29-3.31,6.49-3.31c7.93,0,8.74,6.45,8.74,9.63v14.72h-7.04V20.66
					c0-2.59-0.55-4.88-3.69-4.88c-3.48,0-4.03,2.5-4.03,4.92v12.81h-7.04V9.97z"/>
			</g>
			<circle class="st1" cx="134.99" cy="4.02" r="4.02"/>
		</g>
	</g>
	<g>
		<path class="st1" d="M102.23,56.23h-1.79v-3.65h1.79v-0.69c0-4.66,3.44-5.07,6.83-5.07v3.62c-0.9,0-2.03,0-2.03,1.53v0.61h2.03
			v3.65h-2.03v12.42h-4.81V56.23z"/>
		<path class="st1" d="M109.67,60.57c0-3.91,2.81-8.51,8.66-8.51c5.85,0,8.66,4.6,8.66,8.54s-2.81,8.54-8.66,8.54
			c-5.85,0-8.66-4.6-8.66-8.54V60.57z M114.48,60.63c0,2.32,1.77,4.02,3.85,4.02c2.08,0,3.85-1.71,3.85-4.05s-1.77-4.05-3.85-4.05
			c-2.08,0-3.85,1.71-3.85,4.05V60.63z"/>
		<path class="st1" d="M129.53,52.58h4.52v1.79c0.46-0.87,1.3-2.34,4.08-2.34v4.83h-0.17c-2.46,0-3.62,0.9-3.62,3.16v8.63h-4.81
			V52.58z"/>
		<path class="st1" d="M155.93,47.23c3.97,0,5.44,0.61,6.6,1.56c1.68,1.39,2.52,3.5,2.52,5.67c0,2.17-0.9,4.46-2.26,5.62
			c-1.48,1.24-2.92,1.85-6.25,1.85h-2.14v6.72h-5.47V47.23H155.93z M154.4,57.13h2c0.52,0,1.39,0,2.11-0.32
			c0.72-0.32,1.3-0.98,1.3-2.26s-0.61-1.88-1.36-2.2c-0.75-0.32-1.65-0.32-2.26-0.32h-1.79V57.13z"/>
		<path class="st1" d="M169.77,52.03h-4.23v-4.81h13.9v4.81h-4.2v16.62h-5.47V52.03z"/>
		<path class="st1" d="M186.97,57.1c-0.03-0.35-0.09-1.22-1.51-1.22c-1.01,0-1.36,0.64-1.36,1.07c0,0.72,1.19,1.22,2.46,1.59
			c2.72,0.75,5.62,1.56,5.62,5.04c0,3.53-2.98,5.62-6.54,5.62c-2.43,0-6.11-1.1-6.54-5.33h4.78c0.2,1.48,1.62,1.48,1.82,1.48
			c0.81,0,1.68-0.46,1.68-1.25c0-1.1-1.19-1.24-4.26-2.43c-2.08-0.67-3.82-2.03-3.82-4.2c0-3.33,2.89-5.44,6.22-5.44
			c2.11,0,5.76,0.84,6.17,5.07H186.97z"/>
	</g>
</g>
</svg>
