<?xml version="1.0" encoding="utf-8"?>
<!-- Generator: Adobe Illustrator 24.1.1, SVG Export Plug-In . SVG Version: 6.00 Build 0)  -->
<svg version="1.1" id="Layer_1" xmlns="http://www.w3.org/2000/svg" xmlns:xlink="http://www.w3.org/1999/xlink" x="0px" y="0px"
	 viewBox="0 0 35.83 37.34" style="enable-background:new 0 0 35.83 37.34;" xml:space="preserve">
<style type="text/css">
	.st0{fill:#122027;}
</style>
<g>
	<g>
		<g>
			<path class="st0" d="M2.78,29.87h0.2l9.74-2.12c0.19-0.03,0.37-0.12,0.5-0.25L29.72,11c1.21-1.2,1.88-2.84,1.87-4.54
				c0-1.72-0.67-3.36-1.87-4.59c-1.2-1.21-2.84-1.88-4.54-1.87c-1.71-0.02-3.36,0.68-4.54,1.92L4.19,18.42
				c-0.15,0.12-0.25,0.28-0.3,0.45l-2.12,9.74c-0.06,0.35,0.05,0.71,0.3,0.96C2.26,29.76,2.51,29.87,2.78,29.87z M25.18,2.02
				c2.42,0,4.39,1.97,4.39,4.39c0,0.02,0,0.03,0,0.05c0.02,1.16-0.44,2.27-1.26,3.08L22.1,3.28C22.92,2.47,24.03,2.01,25.18,2.02z
				 M20.69,4.74l6.21,6.21L12.51,25.28l-6.21-6.16L20.69,4.74z M5.5,21.14l5,5l-6.41,1.41L5.5,21.14z"/>
			<path class="st0" d="M34.82,35.32H1.01C0.45,35.32,0,35.78,0,36.33s0.45,1.01,1.01,1.01h33.81c0.56,0,1.01-0.45,1.01-1.01
				S35.38,35.32,34.82,35.32z"/>
		</g>
	</g>
</g>
</svg>
