<?xml version="1.0" encoding="utf-8"?>
<!-- Generator: Adobe Illustrator 24.1.1, SVG Export Plug-In . SVG Version: 6.00 Build 0)  -->
<svg version="1.1" id="Layer_1" xmlns="http://www.w3.org/2000/svg" xmlns:xlink="http://www.w3.org/1999/xlink" x="0px" y="0px"
	 viewBox="0 0 56.43 58.81" style="enable-background:new 0 0 56.43 58.81;" xml:space="preserve">
<style type="text/css">
	.st0{fill:#3E9DD8;}
</style>
<g>
	<g>
		<g>
			<path class="st0" d="M4.37,47.05h0.32l15.34-3.34c0.3-0.05,0.58-0.19,0.79-0.4l25.99-25.99c1.9-1.89,2.96-4.47,2.94-7.15
				c0-2.7-1.05-5.3-2.94-7.23c-1.89-1.9-4.47-2.96-7.15-2.94c-2.7-0.02-5.29,1.07-7.15,3.02L6.6,29.01
				c-0.23,0.18-0.4,0.43-0.48,0.72L2.78,45.06c-0.09,0.55,0.09,1.11,0.48,1.51C3.55,46.87,3.95,47.05,4.37,47.05z M39.66,3.18
				c3.82,0,6.91,3.1,6.92,6.91c0,0.03,0,0.05,0,0.08c0.03,1.82-0.69,3.57-1.99,4.85l-9.78-9.86C36.1,3.89,37.84,3.17,39.66,3.18z
				 M32.59,7.47l9.78,9.78L19.71,39.82l-9.78-9.7L32.59,7.47z M8.66,33.3l7.87,7.87L6.44,43.4L8.66,33.3z"/>
			<path class="st0" d="M54.84,55.64H1.59C0.71,55.64,0,56.35,0,57.23s0.71,1.59,1.59,1.59h53.25c0.88,0,1.59-0.71,1.59-1.59
				S55.72,55.64,54.84,55.64z"/>
		</g>
	</g>
</g>
</svg>
