<?xml version="1.0" encoding="utf-8"?>
<!-- Generator: Adobe Illustrator 24.1.1, SVG Export Plug-In . SVG Version: 6.00 Build 0)  -->
<svg version="1.1" id="Layer_1" xmlns="http://www.w3.org/2000/svg" xmlns:xlink="http://www.w3.org/1999/xlink" x="0px" y="0px"
	 viewBox="0 0 37.1 44" style="enable-background:new 0 0 37.1 44;" xml:space="preserve">
<style type="text/css">
	.st0{fill:#369DD8;}
</style>
<g>
	<path class="st0" d="M18.29,23.69c-3.37,0-5.58-2.13-6.31-2.82c-3.27-3.14-3.38-7.39-3.41-8.98c-0.04-1.51-0.1-4.03,1.45-6.66
		C10.54,4.35,13.35,0,18.26,0c0.01,0,0.03,0,0.04,0c2.56,0.01,5.12,1.28,7.02,3.48c2.62,3.04,2.68,7.03,2.7,8.34v0
		c0,0.08,0,0.2,0,0.36c-0.02,1.79-0.43,6.27-3.99,9.23C23.35,21.98,21.29,23.69,18.29,23.69C18.29,23.69,18.29,23.69,18.29,23.69z
		 M18.26,2.14c-3.75,0-5.98,3.47-6.4,4.17c-1.24,2.1-1.19,4.15-1.15,5.51c0.04,1.49,0.12,4.97,2.76,7.5
		c0.64,0.61,2.32,2.23,4.83,2.23c2.23,0,3.78-1.29,4.37-1.78c2.87-2.38,3.21-6.11,3.22-7.6c0-0.14,0-0.24,0-0.31v0
		c-0.02-1.12-0.07-4.53-2.18-6.98c-0.71-0.82-2.65-2.73-5.41-2.74C18.28,2.14,18.27,2.14,18.26,2.14z"/>
	<path class="st0" d="M20.1,44c-0.44,0-0.9-0.01-1.36-0.02c-3.52-0.09-6.52-0.69-8.7-1.13c-5.77-1.16-9.8-4.55-10.03-8.44
		c-0.27-4.62,5.04-8.81,13.53-10.68L14,25.82c-7.29,1.61-12.06,5.01-11.86,8.47c0.17,2.9,3.51,5.5,8.31,6.47
		c2.11,0.42,4.99,1,8.33,1.09c2.95,0.08,5.48-0.1,7.52-0.51c5.04-1.02,8.26-3.21,8.62-5.85c0.43-3.15-4.47-7.95-11.66-9.67l0.5-2.08
		c7.84,1.87,13.92,7.38,13.28,12.04c-0.5,3.63-4.25,6.42-10.31,7.65C24.87,43.81,22.64,44,20.1,44z"/>
</g>
</svg>
