<?xml version="1.0" encoding="utf-8"?>
<!-- Generator: Adobe Illustrator 24.1.1, SVG Export Plug-In . SVG Version: 6.00 Build 0)  -->
<svg version="1.1" id="Layer_1" xmlns="http://www.w3.org/2000/svg" xmlns:xlink="http://www.w3.org/1999/xlink" x="0px" y="0px"
	 viewBox="0 0 17.2 22.7" style="enable-background:new 0 0 17.2 22.7;" xml:space="preserve">
<style type="text/css">
	.st0{fill:#369DD8;}
</style>
<g>
	<path class="st0" d="M13.82,11.15H9.34c-0.29,0-0.52,0.23-0.52,0.52c0,0.29,0.23,0.52,0.52,0.52h4.48c0.29,0,0.52-0.23,0.52-0.52
		C14.34,11.38,14.11,11.15,13.82,11.15z"/>
	<path class="st0" d="M13.82,5.08H9.34c-0.29,0-0.52,0.23-0.52,0.52c0,0.29,0.23,0.52,0.52,0.52h4.48c0.29,0,0.52-0.23,0.52-0.52
		C14.34,5.31,14.11,5.08,13.82,5.08z"/>
	<path class="st0" d="M17.19,2.02c0-1.11-0.9-2.02-2.02-2.02H2.02C0.9,0,0,0.9,0,2.02v18.66c0,1.11,0.9,2.02,2.02,2.02
		c2.47,0,4.35,0,5.78,0.01c3.87,0.01,4.47,0.01,4.57-0.08c0.15-0.13,4.52-4.5,4.7-4.69c0.13-0.14,0.13-1.04,0.12-6.87
		C17.19,8.84,17.19,5.91,17.19,2.02z M12.62,20.91v-2.79h2.79L12.62,20.91z M16.15,17.08h-4.05c-0.29,0-0.52,0.23-0.52,0.52v4.05
		H2.02c-0.54,0-0.97-0.44-0.97-0.97V2.02c0-0.54,0.44-0.97,0.97-0.97h13.16c0.54,0,0.97,0.44,0.97,0.97V17.08z"/>
	<path class="st0" d="M5.66,10.37l-1.61,1.61l-0.31-0.31c-0.1-0.1-0.24-0.15-0.37-0.15c-0.13,0-0.27,0.05-0.37,0.15
		c-0.2,0.2-0.2,0.53,0,0.74l0.68,0.68c0.2,0.2,0.54,0.2,0.74,0l1.98-1.98c0.2-0.2,0.2-0.53,0-0.74C6.2,10.18,5.86,10.18,5.66,10.37z
		"/>
	<path class="st0" d="M5.66,4.24L4.04,5.85L3.74,5.55c-0.1-0.1-0.24-0.15-0.37-0.15C3.23,5.39,3.1,5.44,3,5.55
		c-0.2,0.2-0.2,0.53,0,0.74l0.68,0.68c0.2,0.2,0.54,0.2,0.74,0L6.4,4.98c0.2-0.2,0.2-0.53,0-0.74C6.2,4.04,5.86,4.04,5.66,4.24z"/>
</g>
</svg>
