<?xml version="1.0" encoding="utf-8"?>
<!-- Generator: Adobe Illustrator 24.1.1, SVG Export Plug-In . SVG Version: 6.00 Build 0)  -->
<svg version="1.1" id="Layer_1" xmlns="http://www.w3.org/2000/svg" xmlns:xlink="http://www.w3.org/1999/xlink" x="0px" y="0px"
	 viewBox="0 0 36.6 36.6" style="enable-background:new 0 0 36.6 36.6;" xml:space="preserve">
<style type="text/css">
	.st0{fill:#369DD8;}
</style>
<g>
	<path class="st0" d="M34.71,0.45H1.89c-0.79,0-1.44,0.64-1.44,1.44v32.83c0,0.79,0.64,1.44,1.44,1.44h32.83
		c0.79,0,1.44-0.64,1.44-1.44V1.89C36.15,1.09,35.51,0.45,34.71,0.45z M33.27,3.32v9.2H3.32v-9.2H33.27z M21.25,22.64H3.32V15.4
		h17.92V22.64z M3.32,25.51h17.92v7.76H3.32V25.51z M24.12,33.27V15.4h9.15v17.87H24.12z"/>
	<path class="st0" d="M34.71,36.6H1.89C0.85,36.6,0,35.75,0,34.71V1.89C0,0.85,0.85,0,1.89,0h32.83c1.04,0,1.89,0.85,1.89,1.89
		v32.83C36.6,35.75,35.75,36.6,34.71,36.6z M1.89,0.9C1.34,0.9,0.9,1.34,0.9,1.89v32.83c0,0.55,0.44,0.99,0.99,0.99h32.83
		c0.55,0,0.99-0.44,0.99-0.99V1.89c0-0.55-0.44-0.99-0.99-0.99H1.89z M33.72,33.72H23.67V14.95h10.05V33.72z M24.57,32.83h8.26
		V15.85h-8.26V32.83z M21.69,33.72H2.88v-8.66h18.82V33.72z M3.77,32.83H20.8v-6.87H3.77V32.83z M21.69,23.08H2.88v-8.13h18.82
		V23.08z M3.77,22.19H20.8v-6.34H3.77V22.19z M33.72,12.97H2.88V2.88h30.85V12.97z M3.77,12.08h29.05v-8.3H3.77V12.08z"/>
</g>
</svg>
