<?xml version="1.0" encoding="utf-8"?>
<!-- Generator: Adobe Illustrator 24.1.1, SVG Export Plug-In . SVG Version: 6.00 Build 0)  -->
<svg version="1.1" id="Layer_1" xmlns="http://www.w3.org/2000/svg" xmlns:xlink="http://www.w3.org/1999/xlink" x="0px" y="0px"
	 viewBox="0 0 25.65 23.51" style="enable-background:new 0 0 25.65 23.51;" xml:space="preserve">
<style type="text/css">
	.st0{fill:#369DD8;}
</style>
<g>
	<g>
		<path class="st0" d="M25.65,20.81L24.58,1.57c-0.01-0.14-0.07-0.28-0.18-0.37c-0.11-0.1-0.25-0.15-0.4-0.13l-8.14,0.68
			C15.48,0.73,14.5,0,13.36,0c-1.3,0-2.39,0.94-2.62,2.18l-0.21,0.02l-6.7-1.12C3.54,1.02,3.26,1.22,3.21,1.51L0.01,19.68
			c-0.02,0.14,0.01,0.28,0.09,0.4c0.08,0.12,0.21,0.2,0.35,0.22l4.8,0.8L5.34,23c0.01,0.15,0.08,0.28,0.19,0.38
			c0.1,0.08,0.22,0.13,0.35,0.13c0.02,0,0.04,0,0.06,0l8.26-0.92l5.48,0.91c0.03,0.01,0.06,0.01,0.09,0.01
			c0.26,0,0.48-0.18,0.52-0.44l0.21-1.18l4.67-0.52C25.45,21.34,25.66,21.09,25.65,20.81z M14.96,2.9v0.04l-0.14-0.02L14.96,2.9z
			 M13.36,1.07c0.58,0,1.08,0.31,1.37,0.77l-2.85,0.24C12.11,1.49,12.68,1.07,13.36,1.07z M6.38,22.38l-0.06-1.11l4.01,0.67
			L6.38,22.38z M19.33,22.36L1.15,19.33L4.17,2.22l10.79,1.8v4c0,0.88-0.72,1.6-1.6,1.6s-1.6-0.72-1.6-1.6V5.88
			c0-0.29-0.24-0.53-0.53-0.53s-0.53,0.24-0.53,0.53v2.14c0,1.47,1.2,2.67,2.67,2.67s2.67-1.2,2.67-2.67V4.19l6.33,1.05L19.33,22.36
			z M20.7,20.79L23.5,4.9c0.02-0.14-0.01-0.28-0.09-0.4c-0.08-0.12-0.21-0.2-0.35-0.22l-7.03-1.17v-0.3l7.51-0.63l1.01,18.18
			L20.7,20.79z"/>
	</g>
</g>
</svg>
